<?xml version="1.0" encoding="UTF-8"?>
<!-- Generated by Pixelmator Pro 3.5.8 -->
<svg width="1000" height="350" viewBox="0 0 1000 350" xmlns="http://www.w3.org/2000/svg">
    <g id="Group">
        <path id="Filmateum" fill="#ffffff" fill-rule="evenodd" stroke="none" d="M 938.464172 322.26059 L 949.65979 322.26059 L 949.65979 216.728195 C 949.65979 213.302185 949.598633 209.662125 949.476257 205.807877 C 949.353882 201.953629 948.986816 198.405334 948.375061 195.162872 C 947.763245 191.92041 946.876221 189.259186 945.713806 187.179123 C 944.551392 185.099045 942.869019 184.059021 940.666626 184.059021 C 938.953613 184.059021 937.210022 184.793152 935.435852 186.261444 C 933.661682 187.729721 931.94873 189.595642 930.296875 191.859253 C 928.645081 194.122849 927.085022 196.7229 925.61676 199.65947 C 924.148499 202.596039 922.894348 205.501968 921.854309 208.377365 C 920.81427 211.252747 919.988342 214.036331 919.376587 216.728195 C 918.764771 219.420044 918.458923 221.683609 918.458923 223.518967 L 918.458923 322.26059 L 929.838074 322.26059 L 929.838074 343 L 884.321472 343 L 884.321472 322.26059 L 895.700623 322.26059 L 895.700623 216.728195 C 895.700623 205.96077 895.119446 197.824158 893.957031 192.318085 C 892.794678 186.812027 890.439331 184.059021 886.89093 184.059021 C 884.810913 184.059021 882.639099 185.190811 880.375488 187.454422 C 878.111877 189.718018 875.970642 192.715729 873.951782 196.447617 C 871.932861 200.179504 870.066956 204.400757 868.353943 209.111496 C 866.640991 213.82225 865.356262 218.624695 864.499756 223.518967 L 864.499756 322.26059 L 875.695374 322.26059 L 875.695374 343 L 826.508057 343 L 826.508057 322.26059 L 841.557922 322.26059 L 841.557922 188.830933 L 826.508057 188.830933 L 826.508057 168.275055 L 864.499756 168.275055 L 864.499756 187.729721 C 866.090393 184.303726 868.017456 181.122482 870.281067 178.185913 C 872.544678 175.249359 874.99176 172.679886 877.622437 170.477463 C 880.253113 168.27504 882.975525 166.531479 885.789734 165.246735 C 888.603943 163.961975 891.479309 163.319611 894.415894 163.319611 C 901.023132 163.319611 905.764404 165.889069 908.639832 171.028076 C 911.515198 176.167068 913.442322 183.141312 914.421143 191.951019 C 919.56012 182.0401 924.974365 174.790558 930.66394 170.202164 C 936.353577 165.61377 942.196045 163.319611 948.191528 163.319611 C 952.71875 163.319611 956.542297 164.512573 959.662415 166.898544 C 962.782532 169.2845 965.290833 172.55751 967.187378 176.717636 C 969.083862 180.877777 970.460388 185.771988 971.316895 191.400406 C 972.173401 197.028839 972.601624 203.085419 972.601624 209.570343 L 972.601624 322.26059 L 987.651428 322.26059 L 987.651428 343 L 938.464172 343 Z M 816.230103 343 L 778.421997 343 L 778.421997 322.99472 C 776.58667 328.133728 774.598389 332.324402 772.457153 335.566833 C 770.315857 338.809296 768.052307 341.348175 765.666321 343.183533 C 763.280396 345.01889 760.772095 346.273041 758.141418 346.945984 C 755.510742 347.618958 752.849548 347.955444 750.157654 347.955444 C 746.609314 347.955444 743.18335 347.282471 739.879761 345.936554 C 736.576111 344.590637 733.639587 342.265869 731.070068 338.96225 C 728.500549 335.6586 726.451111 331.223236 724.921692 325.655975 C 723.392212 320.088745 722.627502 313.083893 722.627502 304.641266 L 722.627502 188.830933 L 707.577637 188.830933 L 707.577637 168.275055 L 745.569336 168.275055 L 745.569336 293.078583 C 745.569336 300.052948 745.814026 305.742462 746.303467 310.147308 C 746.792847 314.552155 747.496399 318.008698 748.414124 320.516998 C 749.331787 323.02533 750.463562 324.76889 751.809509 325.747742 C 753.155396 326.726593 754.623657 327.216034 756.214294 327.216034 C 758.906189 327.216034 761.475647 325.870117 763.922791 323.178253 C 766.369934 320.48642 768.602905 317.029877 770.621765 312.808563 C 772.640686 308.58725 774.323059 303.815399 775.669006 298.492859 C 777.014893 293.170319 777.932556 287.939636 778.421997 282.800659 L 778.421997 188.830933 L 759.517944 188.830933 L 759.517944 168.275055 L 801.180298 168.275055 L 801.180298 322.26059 L 816.230103 322.26059 Z M 672.155457 247.562012 C 672.033081 239.364075 671.635437 231.472168 670.962463 223.886047 C 670.289551 216.299896 669.28009 209.600952 667.934143 203.789001 C 666.588257 197.977036 664.844666 193.358139 662.70343 189.932129 C 660.562195 186.506134 657.962158 184.793167 654.903198 184.793167 C 652.088989 184.793167 649.641907 186.506134 647.561829 189.932129 C 645.48175 193.358139 643.707581 197.977036 642.239319 203.789001 C 640.771057 209.600952 639.608643 216.299896 638.752136 223.886047 C 637.895691 231.472168 637.40625 239.364075 637.283875 247.562012 Z M 658.023315 327.950165 C 661.571655 327.950165 664.508179 326.81839 666.832947 324.554779 C 669.157715 322.291168 671.05426 319.47699 672.522522 316.112183 C 673.990845 312.747375 675.153198 309.137878 676.009705 305.28363 C 676.866211 301.429382 677.600342 297.850494 678.212097 294.546875 L 696.382019 294.546875 C 695.403198 302.132996 693.873718 309.199005 691.79364 315.745117 C 689.713623 322.291199 687.02179 327.950134 683.71814 332.722046 C 680.41449 337.493988 676.529724 341.22583 672.063721 343.917664 C 667.597656 346.609528 662.550537 347.955444 656.922119 347.955444 C 650.314819 347.955444 644.349976 345.997742 639.027466 342.082336 C 633.704956 338.166901 629.147217 332.355042 625.354126 324.646545 C 621.561096 316.938049 618.655151 307.394348 616.63623 296.015137 C 614.617371 284.635925 613.60791 271.482758 613.60791 256.555206 C 613.60791 242.484131 614.617371 229.759201 616.63623 218.380005 C 618.655151 207.000793 621.499878 197.334732 625.170593 189.381531 C 628.841309 181.428329 633.215515 175.279984 638.293335 170.93631 C 643.371155 166.592636 649.03009 164.420822 655.270264 164.420822 C 668.240112 164.420822 678.273254 172.802155 685.369934 189.565063 C 692.466675 206.327972 696.014954 230.676666 696.014954 262.611847 L 696.014954 266.649597 L 637.283875 266.649597 C 637.65094 286.716156 639.363953 301.949371 642.422852 312.349731 C 645.481812 322.750061 650.681885 327.950165 658.023315 327.950165 Z M 582.774109 325.747742 C 586.322449 325.747742 589.381348 324.891266 591.950867 323.178253 C 594.520325 321.465271 596.967468 319.568756 599.292236 317.488678 L 609.386658 335.108002 C 608.04071 336.331573 606.419495 337.67749 604.522949 339.145782 C 602.626404 340.614044 600.424011 341.959961 597.91571 343.183533 C 595.40741 344.407104 592.62384 345.447113 589.56488 346.303619 C 586.505981 347.160126 583.26355 347.588379 579.837585 347.588379 C 569.80426 347.588379 561.881775 344.193024 556.069824 337.402191 C 550.257874 330.611389 547.351929 320.302948 547.351929 306.476624 L 547.351929 188.830933 L 526.428955 188.830933 L 526.428955 168.275055 L 547.351929 168.275055 L 547.351929 115.233551 L 570.293762 115.233551 L 570.293762 168.275055 L 600.760498 168.275055 L 600.760498 188.830933 L 570.293762 188.830933 L 570.293762 306.476624 C 570.293762 313.083893 571.333801 317.94751 573.413818 321.067627 C 575.493896 324.187714 578.613953 325.747742 582.774109 325.747742 Z M 486.969055 251.232697 C 480.484131 251.844482 475.253448 253.15979 471.276825 255.17868 C 467.300232 257.197571 464.210754 260.011749 462.008331 263.621277 C 459.805908 267.230804 458.337646 271.666199 457.603516 276.927551 C 456.869354 282.188904 456.502289 288.306641 456.502289 295.281006 C 456.502289 306.048431 457.603485 314.246216 459.805908 319.874634 C 462.008362 325.503052 465.006042 328.31723 468.799103 328.31723 C 470.389771 328.31723 472.072144 327.705444 473.846313 326.481873 C 475.620483 325.258301 477.333466 323.606506 478.985291 321.526459 C 480.637115 319.446381 482.166534 316.968689 483.573639 314.093292 C 484.980743 311.217896 486.112549 308.189606 486.969055 305.008331 Z M 440.351257 206.633789 C 441.085388 197.824081 442.55365 190.635712 444.756073 185.068466 C 446.958496 179.501221 449.61972 175.096436 452.739838 171.853973 C 455.859955 168.611511 459.377655 166.37854 463.293091 165.154968 C 467.208496 163.931396 471.307404 163.319611 475.589905 163.319611 C 480.361816 163.319611 484.827789 164.084335 488.987915 165.6138 C 493.148071 167.143265 496.788116 169.896255 499.908234 173.872864 C 503.028351 177.849457 505.475433 183.32486 507.249603 190.29921 C 509.023804 197.27356 509.910858 206.20549 509.910858 217.095261 L 509.910858 322.26059 L 524.960693 322.26059 L 524.960693 343 L 486.969055 343 L 486.969055 330.886719 C 483.420685 336.637482 479.811218 340.919922 476.140503 343.734131 C 472.469788 346.54834 467.636749 347.955444 461.641266 347.955444 C 457.970551 347.955444 454.483429 346.854248 451.179779 344.651825 C 447.87616 342.449371 444.939636 339.176392 442.370148 334.832703 C 439.800629 330.489044 437.75119 325.105408 436.22171 318.681671 C 434.692261 312.257935 433.927551 304.824829 433.927551 296.382202 C 433.927551 284.391235 435.273438 274.572205 437.965302 266.924896 C 440.657166 259.277588 444.388977 253.159821 449.160919 248.571442 C 453.932831 243.983063 459.530579 240.618286 465.954315 238.477051 C 472.378082 236.335785 479.382904 234.714584 486.969055 233.613373 L 486.969055 216.728195 C 486.969055 209.386765 486.632568 203.513718 485.959595 199.108871 C 485.286652 194.70401 484.399567 191.308655 483.29834 188.922699 C 482.197144 186.536728 480.942993 184.946121 479.535889 184.150803 C 478.128784 183.355469 476.691101 182.957825 475.222839 182.957825 C 471.307404 182.957825 468.309692 185.129623 466.229645 189.473297 C 464.149567 193.816971 462.80365 200.760635 462.191864 210.304474 Z M 372.994049 322.26059 L 384.189667 322.26059 L 384.189667 216.728195 C 384.189667 213.302185 384.128479 209.662125 384.006134 205.807877 C 383.883759 201.953629 383.516693 198.405334 382.904907 195.162872 C 382.293121 191.92041 381.406067 189.259186 380.243652 187.179123 C 379.081268 185.099045 377.398895 184.059021 375.196472 184.059021 C 373.483459 184.059021 371.739899 184.793152 369.965729 186.261444 C 368.191559 187.729721 366.478577 189.595642 364.826752 191.859253 C 363.174927 194.122849 361.614899 196.7229 360.146637 199.65947 C 358.678345 202.596039 357.424194 205.501968 356.384155 208.377365 C 355.344147 211.252747 354.51825 214.036331 353.906464 216.728195 C 353.294678 219.420044 352.98877 221.683609 352.98877 223.518967 L 352.98877 322.26059 L 364.36792 322.26059 L 364.36792 343 L 318.851349 343 L 318.851349 322.26059 L 330.230499 322.26059 L 330.230499 216.728195 C 330.230499 205.96077 329.649292 197.824158 328.486908 192.318085 C 327.324524 186.812027 324.969177 184.059021 321.420837 184.059021 C 319.340759 184.059021 317.168945 185.190811 314.905334 187.454422 C 312.641754 189.718018 310.500519 192.715729 308.481628 196.447617 C 306.462738 200.179504 304.596832 204.400757 302.88382 209.111496 C 301.170837 213.82225 299.886108 218.624695 299.029602 223.518967 L 299.029602 322.26059 L 310.22522 322.26059 L 310.22522 343 L 261.037933 343 L 261.037933 322.26059 L 276.087769 322.26059 L 276.087769 188.830933 L 261.037933 188.830933 L 261.037933 168.275055 L 299.029602 168.275055 L 299.029602 187.729721 C 300.620239 184.303726 302.547333 181.122482 304.810944 178.185913 C 307.074554 175.249359 309.521637 172.679886 312.152313 170.477463 C 314.78299 168.27504 317.505402 166.531479 320.319611 165.246735 C 323.13382 163.961975 326.009186 163.319611 328.94574 163.319611 C 335.553009 163.319611 340.294281 165.889069 343.169678 171.028076 C 346.045074 176.167068 347.972168 183.141312 348.951019 191.951019 C 354.089996 182.0401 359.504242 174.790558 365.193817 170.202164 C 370.883423 165.61377 376.725891 163.319611 382.721375 163.319611 C 387.248596 163.319611 391.072205 164.512573 394.192291 166.898544 C 397.312408 169.2845 399.820679 172.55751 401.717224 176.717636 C 403.613739 180.877777 404.990234 185.771988 405.846741 191.400406 C 406.703247 197.028839 407.1315 203.085419 407.1315 209.570343 L 407.1315 322.26059 L 422.181335 322.26059 L 422.181335 343 L 372.994049 343 Z M 192.946594 90.823456 L 230.938263 90.823456 L 230.938263 302.438843 C 230.938263 307.088409 231.305328 310.728485 232.039474 313.359161 C 232.773605 315.989838 233.874802 317.94751 235.343094 319.232269 C 236.811371 320.517029 238.677292 321.342926 240.940903 321.709991 C 243.204498 322.077057 245.865723 322.26059 248.924652 322.26059 L 253.880081 322.26059 L 253.880081 343 L 249.291718 343 C 242.317368 343 236.260788 342.388214 231.121796 341.164642 C 225.982803 339.941071 221.700363 337.708099 218.274368 334.465637 C 214.848373 331.223175 212.278915 326.848969 210.565918 321.342926 C 208.852921 315.836853 207.996429 308.801422 207.996429 300.23645 L 207.996429 111.379318 L 192.946594 111.379318 Z M 133.664917 168.275055 L 171.656586 168.275055 L 171.656586 322.26059 L 190.01004 322.26059 L 190.01004 343 L 133.664917 343 L 133.664917 322.26059 L 148.714752 322.26059 L 148.714752 188.830933 L 133.664917 188.830933 Z M 140.088623 118.904236 C 140.088623 114.009964 141.709839 109.849884 144.952301 106.423889 C 148.194763 102.997894 152.324249 101.284912 157.340881 101.284912 C 162.235168 101.284912 166.395233 102.997894 169.821243 106.423889 C 173.247238 109.849884 174.960205 114.009964 174.960205 118.904236 C 174.960205 123.920883 173.247238 128.080948 169.821243 131.384598 C 166.395233 134.688232 162.235168 136.340027 157.340881 136.340027 C 152.324249 136.340027 148.194763 134.688232 144.952301 131.384598 C 141.709839 128.080948 140.088623 123.920883 140.088623 118.904236 Z M 99.894554 166.256165 L 99.894554 111.379318 L 57.681591 111.379318 L 57.681591 203.146622 L 100.628693 203.146622 L 100.628693 223.886047 L 57.681591 223.886047 L 57.681591 322.26059 L 85.211784 322.26059 L 85.211784 343 L 12.348541 343 L 12.348541 322.26059 L 34.739765 322.26059 L 34.739765 111.379318 L 12.348541 111.379318 L 12.348541 90.823456 L 119.716286 90.823456 L 119.716286 166.256165 Z"/>
        <path id="Quatrefoil-3-copy-2" fill="#0e3d83" stroke="none" d="M 838.950684 44.346466 C 891.156006 -7.858917 734.539856 -7.858917 786.7453 44.346466 C 734.539856 -7.858917 734.539856 148.757172 786.7453 96.551819 C 734.539856 148.757172 891.156006 148.757172 838.950684 96.551819 C 891.156006 148.757172 891.156006 -7.858917 838.950684 44.346466 Z"/>
        <path id="Quatrefoil-3-copy" fill="#fff4d0" stroke="none" d="M 832.424988 52.177246 C 871.579041 13.023224 754.116882 13.023224 793.270996 52.177246 C 754.116882 13.023224 754.116882 130.485306 793.270996 91.331268 C 754.116882 130.485306 871.579041 130.485306 832.424988 91.331268 C 871.579041 130.485306 871.579041 13.023224 832.424988 52.177246 Z"/>
        <path id="Quatrefoil-3-copy-3" fill="#0e3d83" stroke="none" d="M 825.899353 57.397827 C 852.002014 31.295135 773.693909 31.295135 799.796631 57.397827 C 773.693909 31.295135 773.693909 109.603195 799.796631 83.500519 C 773.693909 109.603195 852.002014 109.603195 825.899353 83.500519 C 852.002014 109.603195 852.002014 31.295135 825.899353 57.397827 Z"/>
    </g>
</svg>
